<?xml version="1.0" encoding="UTF-8"?>
<svg version="1.1" xmlns="http://www.w3.org/2000/svg" width="478" height="411">
<path d="M0 0 C157.74 0 315.48 0 478 0 C478 135.63 478 271.26 478 411 C320.26 411 162.52 411 0 411 C0 275.37 0 139.74 0 0 Z " fill="#FDFDFC" transform="translate(0,0)"/>
<path d="M0 0 C3.63136337 2.11697385 6.75788018 4.9010046 8 9 C8.5625 11.75 8.5625 11.75 8 15 C3.56433058 21.07741962 -2.18147577 26.32866864 -7.49609375 31.62890625 C-8.28846939 32.42223862 -9.08084503 33.21557098 -9.89723206 34.03294373 C-11.56250283 35.69889081 -13.22902029 37.36359256 -14.89672852 39.02709961 C-17.43034622 41.55536134 -19.95858167 44.08891661 -22.48632812 46.62304688 C-24.11426283 48.2503207 -25.74250775 49.87728425 -27.37109375 51.50390625 C-28.11717392 52.25201065 -28.86325409 53.00011505 -29.63194275 53.77088928 C-33.6890509 57.81017525 -37.84284533 61.6620987 -42.17811584 65.40049744 C-44.7454355 67.65444666 -47.13111532 70.03663721 -49.53125 72.46875 C-50.01146606 72.95275269 -50.49168213 73.43675537 -50.9864502 73.9354248 C-52.49349407 75.45447309 -53.99718686 76.97676688 -55.5 78.5 C-66.53800086 89.6879834 -66.53800086 89.6879834 -70.9375 93.44140625 C-76.7775176 98.43062992 -82.09382453 103.98873724 -87.5 109.4375 C-88.61955632 110.5620833 -89.73934629 111.68643405 -90.859375 112.81054688 C-93.57561534 115.53769344 -96.28868292 118.26795907 -99 121 C-81.92549814 122.97628035 -81.92549814 122.97628035 -66.01171875 119.08984375 C-63.36461543 116.5525462 -61.21710984 113.9153157 -59 111 C-57.18735426 109.42990973 -55.3317015 107.90816948 -53.4375 106.4375 C-49.86171531 103.55151207 -46.39598682 100.59555196 -43 97.5 C-38.77583145 93.65441259 -34.41046927 90.03269029 -29.97265625 86.4375 C-26.67204959 83.73108928 -23.42430809 80.96958695 -20.1875 78.1875 C-19.600896 77.68331543 -19.01429199 77.17913086 -18.40991211 76.65966797 C-16.6057956 75.10738578 -14.80270456 73.55392161 -13 72 C0.25329274 60.5757331 0.25329274 60.5757331 6.4375 55.5625 C11.68876988 51.30365761 16.78958341 46.88255113 21.87475586 42.42797852 C31.05641249 34.4060588 31.05641249 34.4060588 36.97265625 34.6484375 C41.39234237 35.41485706 44.13259214 37.93019697 46.875 41.3125 C48.34492852 44.82399591 48.47195807 47.22433541 48 51 C45.48253693 54.59150487 42.67058019 57.28053252 39.25 60 C38.27804687 60.77988281 37.30609375 61.55976562 36.3046875 62.36328125 C35.77456055 62.78561035 35.24443359 63.20793945 34.69824219 63.64306641 C31.57494242 66.13865297 28.47697077 68.66549252 25.375 71.1875 C24.70065918 71.7345459 24.02631836 72.2815918 23.33154297 72.84521484 C18.32330207 76.91125325 13.3460959 81.01369015 8.375 85.125 C2.68961696 89.82616359 -3.06273573 94.42256899 -8.88964844 98.9465332 C-13.73605085 102.73514467 -18.40806421 106.70971 -23.03198242 110.76611328 C-27.19749831 114.39875015 -31.54364438 117.73195807 -36 121 C-35.02764404 121.01458252 -34.05528809 121.02916504 -33.0534668 121.04418945 C-29.39459145 121.10281347 -25.73629106 121.18003251 -22.07788086 121.26245117 C-20.5040836 121.2954027 -18.93017661 121.32352398 -17.35620117 121.34643555 C-0.91445963 121.59214679 12.284392 123.90178463 24.609375 135.52734375 C38.03512935 149.41378575 41.38943124 169.73872674 46.625 187.75 C47.29908941 190.05870758 47.97356588 192.36730219 48.6484375 194.67578125 C49.60081554 197.93357622 50.55269426 201.19150426 51.50137329 204.45037842 C51.92729263 205.91305145 51.92729263 205.91305145 52.36181641 207.40527344 C52.63366257 208.34122345 52.90550873 209.27717346 53.18559265 210.2414856 C53.73140922 212.09024454 54.29066981 213.9350841 54.86286926 215.77584839 C55.13427231 216.64984283 55.40567535 217.52383728 55.68530273 218.42431641 C55.92804428 219.19111725 56.17078583 219.95791809 56.42088318 220.74795532 C57.43452039 224.68974428 57.47400662 228.57608368 57.4375 232.625 C57.45748047 233.4190625 57.47746094 234.213125 57.49804688 235.03125 C57.49244406 241.86668594 55.53432668 246.86172465 51.24609375 252.171875 C41.46492107 260.70663474 31.15716752 261.5898221 18.57723999 261.50120544 C17.03560487 261.50510437 15.49397337 261.51074954 13.95235026 261.51797634 C9.741662 261.5326638 5.53135027 261.52259002 1.32067442 261.50823963 C-3.23014907 261.49709553 -7.78092123 261.5090837 -12.33174133 261.51808167 C-21.23611806 261.5319921 -30.14035266 261.5244745 -39.04472257 261.50940608 C-49.41857619 261.49252093 -59.79239466 261.49575935 -70.16625778 261.49950016 C-88.67694793 261.50537457 -107.18756998 261.49122283 -125.69824219 261.46655273 C-143.65302074 261.44262626 -161.60770836 261.43555173 -179.5625 261.44604492 C-199.1254425 261.45745751 -218.68834297 261.4593805 -238.25128496 261.44494683 C-240.3377033 261.44342102 -242.42412165 261.44190066 -244.51054001 261.44038582 C-245.53704186 261.439628 -246.56354372 261.43887019 -247.62115169 261.43808941 C-254.8496302 261.43334977 -262.07808992 261.43519571 -269.30656815 261.43945122 C-278.11590226 261.4443808 -286.92515045 261.43838024 -295.7344649 261.41855692 C-300.22773881 261.40869445 -304.72088196 261.40356859 -309.21416283 261.41144943 C-313.32963483 261.41851991 -317.44484328 261.41166975 -321.56028061 261.3938458 C-323.04663814 261.38981022 -324.53301979 261.39078622 -326.01936825 261.39736467 C-338.42980225 261.44757875 -347.27085685 260.10317634 -356.6875 251.5625 C-363.25448364 244.28557218 -362.95171811 237.42285468 -362.67724609 227.99365234 C-361.78064592 215.10049103 -357.35924677 202.70301954 -353.48376465 190.45220947 C-352.58370908 187.58321074 -351.71258301 184.70580372 -350.84253407 181.82758808 C-349.78642133 178.3364439 -348.71715637 174.84938287 -347.64453125 171.36328125 C-347.44746897 170.72143702 -347.25040668 170.07959278 -347.04737282 169.41829872 C-341.47662306 151.38251769 -335.8060572 137.10697607 -319 127 C-311.62521475 123.38593621 -305.16497047 121.83522913 -296.93673706 122.02346802 C-296.23689355 122.03758032 -295.53705004 122.05169262 -294.81599915 122.06623256 C-293.28616717 122.09746645 -291.75638246 122.13108542 -290.22664833 122.16679192 C-285.96619282 122.26558285 -281.70536195 122.34512102 -277.44454956 122.42678833 C-276.08147867 122.45352218 -276.08147867 122.45352218 -274.690871 122.4807961 C-261.97403135 122.72365266 -249.25536612 122.82079971 -236.53677177 122.92564583 C-226.19871149 123.01506963 -215.86567813 123.15419863 -205.53027344 123.40917969 C-196.49222269 123.63194703 -187.45867233 123.75605353 -178.41780484 123.76875198 C-173.64411417 123.778854 -168.88189842 123.83430691 -164.11117172 124.00934219 C-139.57126113 124.93882758 -139.57126113 124.93882758 -118.7905556 113.33462274 C-112.61202218 107.36766983 -107.26598346 100.76609934 -102 94 C-98.21061549 89.50049893 -94.29696163 85.17108859 -90.12207031 81.02441406 C-89.23134827 80.13699524 -88.34062622 79.24957642 -87.4229126 78.33526611 C-86.95921516 77.87568764 -86.49551773 77.41610916 -86.01776886 76.94260406 C-84.54370377 75.48150658 -83.07296473 74.01712915 -81.60296631 72.55194092 C-78.48814633 69.44843744 -75.36936683 66.34893246 -72.25 63.25 C-68.61756936 59.64124792 -64.98682221 56.03083368 -61.36025238 52.4161911 C-59.91598098 50.97836778 -58.46871804 49.54360364 -57.02130127 48.10894775 C-56.14318787 47.23413757 -55.26507446 46.35932739 -54.36035156 45.45800781 C-53.20288422 44.30839569 -53.20288422 44.30839569 -52.02203369 43.13555908 C-49.96498518 41.05690872 -49.96498518 41.05690872 -48.35247803 38.72137451 C-47.90616028 38.15332092 -47.45984253 37.58526733 -47 37 C-46.34 37 -45.68 37 -45 37 C-44.73650757 36.41151779 -44.47301514 35.82303558 -44.20153809 35.21672058 C-42.94768121 32.90347693 -41.63336242 31.38584404 -39.77539062 29.5324707 C-39.12131226 28.8753157 -38.46723389 28.21816071 -37.79333496 27.54109192 C-36.73547791 26.49401314 -36.73547791 26.49401314 -35.65625 25.42578125 C-34.56890564 24.33912422 -34.56890564 24.33912422 -33.45959473 23.23051453 C-31.92871626 21.70265357 -30.39541164 20.17722023 -28.85986328 18.65405273 C-26.50364875 16.31612044 -24.15556025 13.97025913 -21.80859375 11.62304688 C-20.32078413 10.14015165 -18.8325184 8.65771389 -17.34375 7.17578125 C-16.28589294 6.11959343 -16.28589294 6.11959343 -15.20666504 5.04206848 C-14.55258667 4.39436996 -13.8985083 3.74667145 -13.22460938 3.0793457 C-12.64884155 2.50738968 -12.07307373 1.93543365 -11.4798584 1.34614563 C-7.98654422 -1.83152977 -4.29965964 -1.17481407 0 0 Z " fill="#01451A" transform="translate(400,5)"/>
<path d="M0 0 C0.47952621 0.41445374 0.95905243 0.82890747 1.45310974 1.25592041 C2.39755699 2.06944977 2.39755699 2.06944977 3.36108398 2.89941406 C3.9849852 3.4376178 4.60888641 3.97582153 5.25169373 4.53033447 C7.11045004 6.09284679 8.99865329 7.47050268 11.0625 8.75 C11.67222656 9.13671875 12.28195313 9.5234375 12.91015625 9.921875 C17.76650005 12.42720376 22.12887875 13.25049798 27.56407452 13.25726891 C28.87551046 13.2637178 30.18694641 13.27016669 31.53812283 13.276811 C32.98673458 13.27386894 34.43534595 13.27073353 35.88395691 13.26742554 C37.42809802 13.27116294 38.97223724 13.27576483 40.51637346 13.28115618 C44.7571925 13.29339065 48.99793269 13.29312518 53.23876536 13.29076743 C57.81356753 13.29035937 62.38834438 13.30139744 66.96313477 13.31088257 C75.92563893 13.32749651 84.8881168 13.33299231 93.85063507 13.33410732 C101.13682462 13.33505771 108.42300548 13.33916753 115.70919228 13.34550858 C136.36959865 13.36312285 157.02998424 13.37234727 177.69039818 13.37084763 C178.80423914 13.37076772 179.91808011 13.3706878 181.06567383 13.37060547 C182.18087594 13.37052371 183.29607806 13.37044195 184.44507418 13.37035771 C202.51447206 13.36954498 220.58378654 13.38867879 238.6531603 13.4168822 C257.20934294 13.44561671 275.76548492 13.45942215 294.32169038 13.45769465 C304.73845936 13.4570309 315.15514094 13.46251671 325.57188988 13.48405075 C334.44204396 13.50227008 343.31207104 13.50660376 352.18223574 13.4930319 C356.70614937 13.48650578 361.2298194 13.48637213 365.75370979 13.5037384 C369.89975908 13.51949018 374.04537204 13.51658416 378.19141082 13.49917014 C379.68670862 13.49610484 381.18203915 13.49971488 382.67729833 13.51089029 C395.54165322 13.60062526 405.03221693 11.32498586 415 3 C416.33050102 1.99623468 417.6635043 0.99576956 419 0 C419.09298381 11.02295666 419.16390851 22.04581886 419.20724869 33.06908894 C419.22805761 38.18853495 419.25625209 43.30771117 419.30175781 48.42700195 C419.34545541 53.37426058 419.36918737 58.3212609 419.37950897 63.26869774 C419.38685763 65.14921315 419.40120711 67.0297156 419.42292023 68.91012001 C419.59254176 84.21884845 417.84756166 96.43126533 407.03515625 108.125 C398.54381551 116.23246457 388.74536582 121.11091637 376.96781826 121.13701439 C375.74955835 121.14208893 374.53129844 121.14716347 373.27612156 121.15239179 C371.92744351 121.1529934 370.5787654 121.15349251 369.23008728 121.15390015 C367.79476778 121.15791695 366.35944942 121.16235554 364.92413241 121.1671797 C360.97944806 121.17912662 357.03477593 121.18478927 353.09007704 121.18936086 C348.83562714 121.19532405 344.58119178 121.20693205 340.32675171 121.21765137 C330.05209091 121.24215822 319.77742531 121.25679963 309.50274429 121.26971143 C306.60000656 121.2734245 303.69726931 121.27739763 300.79453206 121.2814641 C282.76277311 121.30670082 264.73101339 121.32875043 246.69924068 121.34119225 C242.523859 121.34412186 238.34847733 121.34708354 234.1730957 121.35009766 C233.13534638 121.35084371 232.09759706 121.35158976 231.02840079 121.35235842 C214.22057163 121.36500985 197.41284831 121.39823127 180.60506862 121.43989949 C163.34278224 121.48234315 146.08055003 121.50589005 128.81821162 121.51111281 C119.12850594 121.51452406 109.4389657 121.52624567 99.74931145 121.55921555 C91.49655362 121.58725056 83.24399515 121.59820021 74.99119341 121.58702008 C70.78303394 121.58184236 66.57529175 121.58466223 62.36719322 121.60948563 C58.50839904 121.63205777 54.65031994 121.63117739 50.79151256 121.61228175 C48.74766777 121.60818006 46.70381809 121.62856832 44.66008228 121.65006864 C32.66543026 121.54751684 23.02432787 117.90852161 14 110 C13.09314453 109.24976563 13.09314453 109.24976563 12.16796875 108.484375 C6.00465697 102.95216486 1.70949315 95.11331738 0 87 C-0.08968848 84.17790261 -0.12622017 81.38127869 -0.11352539 78.55957031 C-0.11367142 77.71042557 -0.11381744 76.86128082 -0.1139679 75.98640442 C-0.11327201 73.1836185 -0.10549476 70.38089929 -0.09765625 67.578125 C-0.09579092 65.63328081 -0.09436756 63.68843614 -0.09336853 61.74359131 C-0.08955242 56.62752991 -0.07972984 51.51149695 -0.06866455 46.39544678 C-0.05843098 41.17379135 -0.05386674 35.95213132 -0.04882812 30.73046875 C-0.03810678 20.48696668 -0.0210412 10.24348571 0 0 Z " fill="#00471B" transform="translate(38,266)"/>
<path d="M0 0 C1.48884565 0.0008473 2.97769255 0.00036912 4.46653748 -0.00132751 C8.48877389 -0.00218488 12.51073948 0.01539859 16.53291321 0.03639436 C20.74360769 0.05520461 24.95430904 0.05691502 29.16503906 0.06047058 C37.12988327 0.06977831 45.09460329 0.09437478 53.05939293 0.12451905 C62.13073051 0.15810276 71.20207416 0.17455904 80.27345848 0.18960536 C98.92586553 0.22092553 117.57815714 0.27366117 136.23046875 0.34057617 C135.28547235 1.45215492 134.33916576 2.56261989 133.39231873 3.67262268 C132.86548713 4.29113381 132.33865553 4.90964495 131.79585934 5.54689884 C129.66080671 7.99331415 127.38949118 10.27576154 125.078125 12.55541992 C124.61490341 13.01485489 124.15168182 13.47428986 123.67442322 13.94764709 C121.72960709 15.87641591 119.77878395 17.79906352 117.82836914 19.72216797 C112.64225495 24.8421616 107.56860606 29.988854 102.83276367 35.53320312 C99.65992958 39.11212904 96.11543187 42.34641011 92.59765625 45.58276367 C89.85147448 48.22628445 88.39024249 49.81843558 87.25390625 53.53198242 C87.21971477 57.62926092 88.46924282 59.3722583 91.23046875 62.34057617 C94.47985174 63.93643947 94.47985174 63.93643947 98.23046875 63.34057617 C101.34661853 61.48049558 103.70928727 58.9283235 106.23046875 56.34057617 C107.26817477 55.30015896 108.30734187 54.26119778 109.34765625 53.22338867 C111.01015623 51.56473373 112.66881318 49.90360313 114.31103516 48.22485352 C117.07399971 45.41394164 119.88795248 42.74319078 122.88671875 40.18432617 C128.63504848 35.21710919 133.89685725 29.74332708 139.23046875 24.34057617 C151.78380791 11.62450854 151.78380791 11.62450854 157.59106445 6.80810547 C159.46318682 5.23084446 159.46318682 5.23084446 161.3984375 2.42260742 C166.22508126 -1.12580792 171.74238898 -0.1747413 177.54296875 0.02807617 C178.76048828 0.05063477 179.97800781 0.07319336 181.23242188 0.09643555 C184.23302357 0.15527087 187.23111672 0.23743477 190.23046875 0.34057617 C186.54971407 4.06913286 182.77366861 7.66874109 178.91796875 11.21557617 C178.34183838 11.74658936 177.76570801 12.27760254 177.17211914 12.82470703 C173.59905178 16.10875785 169.9825048 19.33302498 166.3125 22.50854492 C163.09399998 25.3405834 159.94753464 28.25085565 156.79272461 31.15332031 C153.62249157 34.06862021 150.4364355 36.96448381 147.23046875 39.84057617 C143.02942325 43.61074521 138.86451951 47.41912611 134.70898438 51.23925781 C130.63212596 54.98319037 126.51806416 58.68413693 122.38671875 62.36791992 C121.67515625 63.01889648 120.96359375 63.66987305 120.23046875 64.34057617 C119.11671875 65.34797852 119.11671875 65.34797852 117.98046875 66.37573242 C115.90057193 68.34648236 115.90057193 68.34648236 115.73046875 71.84057617 C115.98765171 75.32730321 115.98765171 75.32730321 117.79296875 77.84057617 C121.28023489 79.98658611 123.30375548 79.22671147 127.23046875 78.34057617 C129.80388277 76.80885983 129.80388277 76.80885983 132.10546875 74.65307617 C133.50925781 73.44071289 133.50925781 73.44071289 134.94140625 72.20385742 C135.45799805 71.75091309 135.97458984 71.29796875 136.50683594 70.83129883 C139.8578233 67.93312194 143.30366292 65.14823421 146.73046875 62.34057617 C148.20213263 61.1287126 149.67349229 59.91647949 151.14453125 58.70385742 C157.04432755 53.8452815 162.95711348 49.00258421 168.88671875 44.18041992 C173.81959817 40.16182419 178.70339173 36.09539705 183.54296875 31.96557617 C188.56064686 27.68783216 193.69786135 23.59517409 198.90698242 19.55395508 C203.94106378 15.62364787 208.7951633 11.50298665 213.61303711 7.31152344 C215.14524232 5.97984855 216.68743411 4.65968758 218.23046875 3.34057617 C219.12401566 2.53226601 219.12401566 2.53226601 220.03561401 1.70762634 C222.9257347 -0.09246544 224.91541366 -0.0465011 228.30908203 -0.06347656 C229.53781036 -0.07616074 230.7665387 -0.08884491 232.03250122 -0.10191345 C233.37192961 -0.09986071 234.71135684 -0.0968716 236.05078125 -0.09301758 C237.43358618 -0.09758289 238.81638884 -0.1028895 240.19918823 -0.10890198 C243.09935711 -0.11783446 245.99925073 -0.11541243 248.89941406 -0.10546875 C252.59126105 -0.09403638 256.28214333 -0.11409976 259.9738636 -0.14338589 C262.83263057 -0.16186905 265.69117215 -0.16143063 268.54998398 -0.15574837 C270.56493985 -0.15552299 272.57987484 -0.17233232 274.59475708 -0.18955994 C282.72802764 -0.12840629 290.52817587 0.42821821 297.02249146 5.83155823 C303.94332876 13.2487996 306.37326098 23.54661333 309.12109375 33.03979492 C309.47057068 34.23361282 309.82004761 35.42743073 310.18011475 36.65742493 C310.91265005 39.16684776 311.641947 41.67721797 312.36816406 44.18847656 C313.11174002 46.75524984 313.85900464 49.32047605 314.61425781 51.88378906 C315.70829811 55.6000567 316.79130894 59.31936336 317.87109375 63.03979492 C318.208526 64.18365158 318.54595825 65.32750824 318.89361572 66.50602722 C319.20103699 67.57766617 319.50845825 68.64930511 319.82519531 69.75341797 C320.09736877 70.69001755 320.36954224 71.62661713 320.64996338 72.59159851 C321.64040644 77.28183222 321.7755587 80.32826626 319.48046875 84.59057617 C317.26907433 87.29339157 316.38761907 88.14831154 313.23046875 89.34057617 C310.45904702 89.59587717 310.45904702 89.59587717 307.19804668 89.6034317 C305.95431056 89.61111399 304.71057443 89.61879628 303.42914933 89.62671137 C302.04657194 89.62515089 300.66399476 89.62339332 299.28141785 89.62145996 C297.81452237 89.6266273 296.3476297 89.63265364 294.88074094 89.63946676 C290.84431816 89.65561273 286.8079665 89.65918622 282.77151525 89.6606617 C278.42033501 89.66436175 274.06919173 89.67945581 269.71803284 89.69293213 C260.20157941 89.72010316 250.68514283 89.73214863 241.16865706 89.74095345 C235.22801274 89.74647707 229.28737493 89.75495151 223.346735 89.76396179 C206.90273414 89.78834678 190.45873851 89.80894608 174.01471996 89.81571198 C172.96215178 89.81615111 171.90958359 89.81659024 170.82511939 89.81704268 C169.77001853 89.81747923 168.71491766 89.81791579 167.62784404 89.81836557 C165.48977037 89.81925251 163.35169671 89.82014564 161.21362305 89.82104492 C160.15306237 89.82148778 159.09250169 89.82193064 157.99980281 89.82238692 C140.8102139 89.83028503 123.62079446 89.86519966 106.43127104 89.91176397 C88.78822022 89.95917161 71.14525447 89.98411475 53.50213891 89.98644781 C43.59402095 89.98828234 33.68612383 89.99981257 23.77806664 90.03608704 C15.34212319 90.06686291 6.90646883 90.07714564 -1.52952007 90.06061083 C-5.8343244 90.05278842 -10.13854633 90.05470071 -14.44327927 90.08272552 C-18.38461111 90.1081501 -22.32492141 90.10585863 -26.26625129 90.0815441 C-27.69155938 90.07762053 -29.11693915 90.08383216 -30.54214642 90.10123283 C-42.50736186 90.23806334 -42.50736186 90.23806334 -47.11512756 86.44017029 C-48.93934776 84.57264187 -49.71373966 83.50287048 -50.56999207 81.01208496 C-50.08439742 73.95489709 -48.46564789 67.45357114 -46.4453125 60.68432617 C-46.10203415 59.50140991 -45.7587558 58.31849365 -45.40507507 57.09973145 C-44.67926334 54.61024863 -43.94686864 52.12267662 -43.20825195 49.63696289 C-42.0868576 45.85684537 -40.99017449 42.07019655 -39.89648438 38.28198242 C-39.18505575 35.85316829 -38.47221161 33.42476824 -37.7578125 30.99682617 C-37.43363846 29.87675171 -37.10946442 28.75667725 -36.77546692 27.60266113 C-31.1277662 8.74884584 -31.1277662 8.74884584 -22.76953125 3.34057617 C-15.32142854 -0.31426844 -8.16159322 -0.06522634 0 0 Z " fill="#FEFDFD" transform="translate(111.76953125,149.659423828125)"/>
<path d="M0 0 C2 1 2 1 2.7787323 2.9535675 C3.02601578 3.80976181 3.27329926 4.66595612 3.52807617 5.5480957 C3.81144333 6.51612625 4.09481049 7.4841568 4.38676453 8.48152161 C4.68581192 9.53562729 4.98485931 10.58973297 5.29296875 11.67578125 C5.60325516 12.75248581 5.91354156 13.82919037 6.23323059 14.93852234 C6.88855099 17.22146707 7.53977471 19.50559105 8.18725586 21.79077148 C9.18135574 25.29086686 10.19427786 28.78512775 11.20898438 32.27929688 C11.84229672 34.49446295 12.47449516 36.70994786 13.10546875 38.92578125 C13.41058884 39.97381424 13.71570892 41.02184723 14.03007507 42.10163879 C14.30398575 43.07912582 14.57789642 44.05661285 14.86010742 45.0637207 C15.10500412 45.92230179 15.34990082 46.78088287 15.60221863 47.66548157 C16.0236395 50.13873666 15.79564751 51.64404431 15 54 C14.79842285 53.33468262 14.5968457 52.66936523 14.38916016 51.98388672 C13.46862373 48.94733263 12.54682319 45.91116369 11.625 42.875 C11.30789063 41.82828125 10.99078125 40.7815625 10.6640625 39.703125 C10.3546875 38.68476563 10.0453125 37.66640625 9.7265625 36.6171875 C9.42782227 35.63331055 9.12908203 34.64943359 8.82128906 33.63574219 C8.18059075 31.57956533 7.48713508 29.53980496 6.7734375 27.5078125 C6 25 6 25 6 21 C5.34 21 4.68 21 4 21 C3.896875 19.88625 3.79375 18.7725 3.6875 17.625 C3.1635937 13.302773 1.97559145 9.32752035 0.62109375 5.19921875 C0 3 0 3 0 0 Z " fill="#0C2612" transform="translate(439,172)"/>
<path d="M0 0 C0.66 0 1.32 0 2 0 C2 1.65 2 3.3 2 5 C1.34 5 0.68 5 0 5 C-1.27837593 10.66137913 -2.44891272 16.31156648 -3.4375 22.03125 C-3.623125 22.6809375 -3.80875 23.330625 -4 24 C-4.66 24.33 -5.32 24.66 -6 25 C-6.68729254 27.11846285 -6.68729254 27.11846285 -7.125 29.5625 C-7.29257812 30.38878906 -7.46015625 31.21507812 -7.6328125 32.06640625 C-7.75398438 32.70449219 -7.87515625 33.34257812 -8 34 C-9.45241039 30.14067068 -8.51883784 27.42966829 -7.3828125 23.5546875 C-7.02316406 22.31332031 -6.66351563 21.07195312 -6.29296875 19.79296875 C-5.903689 18.4869663 -5.51436559 17.18097686 -5.125 15.875 C-4.74262318 14.56144982 -4.36110319 13.24764989 -3.98046875 11.93359375 C-1.18268327 2.36536654 -1.18268327 2.36536654 0 0 Z " fill="#0D2211" transform="translate(53,176)"/>
<path d="M0 0 C0.66 0.33 1.32 0.66 2 1 C0.26009069 2.98889633 -1.49085675 4.96573765 -3.25 6.9375 C-3.74113281 7.50146484 -4.23226563 8.06542969 -4.73828125 8.64648438 C-7.42062014 11.63282168 -9.09718023 13.2133288 -13 14 C-14.3479743 14.63654342 -15.68596724 15.29605388 -17 16 C-14.1454011 12.17808442 -11.10685518 9.27484865 -7.375 6.3125 C-3.56498727 3.29292284 -3.56498727 3.29292284 0 0 Z " fill="#05260E" transform="translate(394,71)"/>
<path d="M0 0 C1.0209375 0.7425 1.0209375 0.7425 2.0625 1.5 C5.59465009 3.30365111 8.08636991 3.23021353 12 3 C10.26107595 5.19653565 9.36248966 5.93493775 6.5625 6.4375 C3.22860839 5.86829899 2.07374675 4.6113848 0 2 C0 1.34 0 0.68 0 0 Z " fill="#05230C" transform="translate(228,224)"/>
<path d="M0 0 C0.66 0.33 1.32 0.66 2 1 C1.67 2.32 1.34 3.64 1 5 C0.34 5 -0.32 5 -1 5 C-1.66 7.97 -2.32 10.94 -3 14 C-3.66 14 -4.32 14 -5 14 C-4.03603575 8.79459302 -3.12319499 4.40086567 0 0 Z " fill="#0A2610" transform="translate(62,151)"/>
<path d="M0 0 C-3.96 3.465 -3.96 3.465 -8 7 C-8.66 6.67 -9.32 6.34 -10 6 C-8.45899296 2.91798591 -7.51635481 1.27706844 -4.4375 -0.375 C-2 -1 -2 -1 0 0 Z " fill="#05220D" transform="translate(263,209)"/>
<path d="M0 0 C0.33 0.99 0.66 1.98 1 3 C0.34 3 -0.32 3 -1 3 C-1 3.99 -1 4.98 -1 6 C-2.98 6.66 -4.96 7.32 -7 8 C-6.02133662 6.85373678 -5.04205413 5.70800212 -4.0625 4.5625 C-3.51722656 3.92441406 -2.97195312 3.28632813 -2.41015625 2.62890625 C-1.63204305 1.73008851 -0.84063472 0.84063472 0 0 Z " fill="#1C3B26" transform="translate(231,167)"/>
<path d="M0 0 C0.66 0 1.32 0 2 0 C2 1.65 2 3.3 2 5 C1.34 5 0.68 5 0 5 C0 5.99 0 6.98 0 8 C-0.66 8 -1.32 8 -2 8 C-1.34 5.36 -0.68 2.72 0 0 Z " fill="#0C2F16" transform="translate(53,176)"/>
<path d="M0 0 C2.99324263 1.0975223 3.84610901 1.67682892 5.25 4.625 C5.4975 5.40875 5.745 6.1925 6 7 C3.69 5.35 1.38 3.7 -1 2 C-0.67 1.34 -0.34 0.68 0 0 Z " fill="#02250D" transform="translate(405,151)"/>
</svg>
